<svg id="Layer_1" data-name="Layer 1" xmlns="http://www.w3.org/2000/svg" xmlns:xlink="http://www.w3.org/1999/xlink" viewBox="0 0 126.85 289.12"><defs><style>.cls-1,.cls-4{fill:none;}.cls-2{clip-path:url(#clip-path);}.cls-3{fill:#52b2bf;}.cls-4{stroke:#4e5362;stroke-miterlimit:10;stroke-width:1.05px;}</style><clipPath id="clip-path" transform="translate(0 -0.01)"><rect class="cls-1" y="0.01" width="126.85" height="289.12"/></clipPath></defs><title>h1_tree</title><g class="cls-2"><path class="cls-3" d="M107.1,125.46A24.51,24.51,0,0,0,100.28,87,39.1,39.1,0,0,0,88.5,38.34a24.52,24.52,0,1,0-46.56,0A39.12,39.12,0,0,0,30,86.77a24.52,24.52,0,0,0-7.34,38.69,62,62,0,1,0,84.43,0" transform="translate(0 -0.01)"/><path class="cls-4" d="M62.82,25.38V289.13M104.7,119.86a24.51,24.51,0,0,0-6.82-38.42A39.1,39.1,0,0,0,86.1,32.74a24.52,24.52,0,1,0-46.56,0A39.12,39.12,0,0,0,27.61,81.17a24.52,24.52,0,0,0-7.34,38.69,62,62,0,1,0,84.43,0Z" transform="translate(0 -0.01)"/></g></svg>