<?xml version="1.0" encoding="utf-8"?>
<!-- Generator: Adobe Illustrator 21.1.0, SVG Export Plug-In . SVG Version: 6.00 Build 0)  -->
<svg version="1.1" id="Layer_1" xmlns="http://www.w3.org/2000/svg" xmlns:xlink="http://www.w3.org/1999/xlink" x="0px" y="0px"
	 viewBox="0 0 1442.2 611.9" style="enable-background:new 0 0 1442.2 611.9;" xml:space="preserve">
<style type="text/css">
	.st0{clip-path:url(#SVGID_2_);}
	.st1{fill:#EFC57D;}
	.st2{fill:#FADEAD;}
	.st3{fill:#6399CC;}
	.st4{fill:none;stroke:#4D5261;stroke-width:1.09;stroke-miterlimit:10;}
	.st5{clip-path:url(#SVGID_4_);}
	.st6{fill:none;stroke:#4D5261;stroke-width:1.05;stroke-miterlimit:10;}
	.st7{fill:#51B3C0;}
	.st8{fill:#E37563;}
	.st9{fill:none;stroke:#4D5261;stroke-width:0.67;stroke-miterlimit:10;}
	.st10{fill:none;stroke:#4D5261;stroke-width:0.95;stroke-miterlimit:10;}
	.st11{fill:none;stroke:#4D5261;stroke-width:0.47;stroke-miterlimit:10;}
	.st12{fill:none;stroke:#4D5261;stroke-width:0.73;stroke-miterlimit:10;}
	.st13{fill:#52B2BF;}
	.st14{fill:none;stroke:#4D5261;stroke-width:2.23;stroke-miterlimit:10;}
	.st15{fill:#FFFFFF;}
	.st16{fill:none;stroke:#4D5261;stroke-width:1.93;stroke-linecap:round;stroke-miterlimit:10;}
	.st17{fill:#87BFDE;}
	.st18{fill:none;stroke:#4D5261;stroke-width:1.81;stroke-miterlimit:10;}
	.st19{fill:none;stroke:#4D5261;stroke-width:1.81;stroke-linecap:round;stroke-miterlimit:10;}
</style>
<title>Asset 3</title>
<g id="Layer_2">
	<g id="Layer_1-2">
		<g>
			<defs>
				<rect id="SVGID_1_" x="141" y="75.2" width="1316" height="556.8"/>
			</defs>
			<clipPath id="SVGID_2_">
				<use xlink:href="#SVGID_1_"  style="overflow:visible;"/>
			</clipPath>
			<g class="st0">
				<path class="st1" d="M1439.3,426.1V250.8c0.3-3.3,0.4-6.6,0.4-9.9c0.5-61.5-49-111.8-110.6-112.3
					c-61.5-0.5-111.8,49-112.3,110.6l0,0v92.2c0,23.8-19.3,43.2-43.2,43.2s-43.2-19.3-43.2-43.2v-17.5h-0.2
					c-2.7-37.9-35.7-66.5-73.6-63.8c-34.2,2.4-61.3,29.6-63.8,63.8h-0.2v156.4c0,23.8-19.3,43.2-43.2,43.2
					c-23.8,0-43.2-19.3-43.2-43.2l0,0h-0.1c-1.9-38-34.3-67.2-72.2-65.3c-35.3,1.8-63.5,30-65.3,65.3h-0.1v137.7h670.5L1439.3,426.1
					L1439.3,426.1z"/>
				<rect x="1439.2" y="426.1" class="st1" width="0.1" height="181.8"/>
				<path class="st2" d="M1252.8,319.7c-2.7-37.9-35.7-66.5-73.6-63.8c-34.2,2.4-61.3,29.6-63.8,63.8h-0.2v65.4
					c0,23.8-19.4,43.2-43.2,43.1c-20.8,0-38.6-14.9-42.4-35.3V250.8c0.3-3.3,0.4-6.6,0.4-9.9c0.5-61.5-49-111.8-110.6-112.3
					s-111.8,49-112.3,110.6l0,0v92.2c0,23.8-19.3,43.2-43.2,43.2c-23.8,0-43.2-19.3-43.2-43.2l0,0v-17.5h-0.2
					c-2.7-37.9-35.7-66.5-73.6-63.8c-34.2,2.4-61.3,29.6-63.8,63.8h-0.2v156.4c0,23.8-19.3,43.2-43.2,43.2s-43.2-19.3-43.2-43.2
					h-0.1c-1.9-38-34.3-67.2-72.2-65.3c-35.3,1.8-63.5,30-65.3,65.3h-0.1v137.7H1253V319.7L1252.8,319.7z"/>
				<path class="st3" d="M1396.1,405.4l-0.2-0.2l-13.7-9.9l-10,13.8l0,0l-0.1,0.2l0,0c-1.5,2.1-1.9,4.8-1.2,7.3l2.5,15.8v0.2
					l2.5,15.6c0.1,2.7,1.4,5.1,3.5,6.7l0.2,0.2l13.6,10l10.1-13.7l0.1-0.2l0,0c1.3-1.8,1.8-4.1,1.4-6.3l0,0l-2.7-16.8v-0.2
					l-2.7-16.8C1399.2,408.8,1397.9,406.8,1396.1,405.4"/>
				<path class="st3" d="M1422.6,439.1h-0.2l0,0c-2.6,0.5-4.8,2.1-6,4.3l-9.4,13l-0.1,0.2l-9.3,12.8c-1.8,1.9-2.7,4.6-2.3,7.2
					c0,0.1,0,0.2,0,0.3l2.6,16.7l16.8-2.6h0.2l0,0c2.2-0.4,4.2-1.6,5.5-3.4l0,0l10-13.8l0.1-0.2l8.6-11.9v-25.2L1422.6,439.1z"/>
				<path class="st3" d="M1430,486.1h-0.2l0,0c-2.6,0.5-4.8,2.1-6,4.3l-9.4,13l-0.1,0.2l-9.3,12.8c-1.8,1.9-2.7,4.6-2.3,7.2
					c0,0.1,0,0.2,0,0.3l2.6,16.7l16.8-2.6h0.2l0,0c2.2-0.4,4.2-1.7,5.5-3.5l0,0l10-13.8l0.1-0.2l1.2-1.6v-34.3L1430,486.1z"/>
				<path class="st3" d="M1437.3,532h-0.2l0,0c-2.6,0.5-4.8,2.1-6,4.3l-9.4,13l-0.1,0.2l-9.3,12.8c-1.8,1.9-2.7,4.6-2.3,7.2
					c0,0.1,0,0.2,0,0.3l2.6,16.7l16.8-2.6h0.2l0,0c2.2-0.4,4.2-1.7,5.5-3.5l0,0l4.1-5.6v-43.2L1437.3,532z"/>
				<path class="st3" d="M1342.9,469.1c0-0.1,0-0.2,0-0.3l-2.7-16.7l16.8-2.7h0.2l0,0c2.6-0.3,5.1,0.5,7,2.3l13,9.4l0.2,0.1
					l12.8,9.3c2.3,1.3,4,3.6,4.4,6.2c0,0.1,0,0.2,0,0.3l2.7,16.7l-16.8,2.7h-0.2l0,0c-2.2,0.3-4.5-0.3-6.3-1.6l0,0l-13.8-10
					l-0.2-0.1l-13.8-10C1344.5,473.4,1343.3,471.3,1342.9,469.1"/>
				<path class="st3" d="M1350.4,516.1c0-0.1,0-0.2,0-0.3l-2.6-16.7l16.8-2.7l0,0h0.2l0,0c2.6-0.3,5.1,0.5,7,2.3l13,9.4l0.2,0.1
					l12.8,9.3c2.3,1.3,4,3.6,4.4,6.2c0,0.1,0,0.2,0,0.3l2.7,16.7l-16.8,2.7h-0.2l0,0c-2.2,0.3-4.5-0.3-6.3-1.6l0,0l-13.8-10
					l-0.2-0.1l-13.8-10C1352,520.5,1350.7,518.5,1350.4,516.1"/>
				<path class="st3" d="M1357.6,562c0-0.1,0-0.2,0-0.3L1355,545l16.8-2.7h0.2l0,0c2.6-0.3,5.1,0.5,7,2.3l13,9.4l0.2,0.1l12.8,9.3
					c2.3,1.3,4,3.6,4.4,6.2c0,0.1,0,0.2,0,0.3l2.7,16.7l-16.8,2.7h-0.2l0,0c-2.2,0.3-4.5-0.3-6.3-1.6l0,0l-13.8-10l-0.2-0.1
					l-13.8-10.1C1359.2,566.3,1358,564.3,1357.6,562"/>
			</g>
		</g>
		<line class="st4" x1="1391.3" y1="462.1" x2="1413.9" y2="604.8"/>
		<g>
			<defs>
				<rect id="SVGID_3_" x="141" y="75.2" width="1316" height="556.8"/>
			</defs>
			<clipPath id="SVGID_4_">
				<use xlink:href="#SVGID_3_"  style="overflow:visible;"/>
			</clipPath>
			<g class="st5">
				<path class="st6" d="M1428.2,483.6h-0.2l0,0c-2.6,0.5-4.8,2.1-6,4.3l-9.4,13l-0.1,0.2l-9.3,12.8c-1.8,1.9-2.7,4.6-2.3,7.2
					c0,0.1,0,0.2,0,0.3l2.6,16.7l16.8-2.6h0.2l0,0c2.2-0.4,4.2-1.6,5.5-3.4l0,0l10-13.8l0.1-0.2l3-4.2v-32.1L1428.2,483.6z"/>
				<path class="st6" d="M1366,529.3l13.8,10l0,0c1.8,1.3,4,1.9,6.3,1.6l0,0h0.2l16.8-2.7l-2.7-16.7c0-0.1,0-0.2,0-0.3
					c-0.4-2.6-2-4.9-4.4-6.2l-12.8-9.3l-0.2-0.1l-13-9.4c-1.9-1.8-4.4-2.6-7-2.3l0,0h-0.2l0,0l-16.8,2.7l2.6,16.7c0,0.1,0,0.2,0,0.3
					c0.4,2.3,1.6,4.3,3.5,5.6l13.8,10L1366,529.3z"/>
				<path class="st6" d="M1407.6,567.1c-0.4-2.6-2-4.9-4.4-6.2l-12.8-9.3l-0.2-0.1l-13-9.4c-1.9-1.8-4.4-2.6-7-2.3l0,0h-0.2l0,0
					l-16.8,2.7l2.6,16.7c0,0.1,0,0.2,0,0.3c0.4,2.3,1.6,4.3,3.5,5.6l13.8,10l0.2,0.1l13.8,10l0,0c1.8,1.3,4,1.9,6.3,1.6l0,0h0.2
					l16.8-2.7l-2.7-16.7C1407.6,567.3,1407.6,567.2,1407.6,567.1z"/>
				<path class="st6" d="M1369.1,414.1l2.5,15.8v0.2l2.5,15.6c0.1,2.7,1.4,5.1,3.5,6.7l0.2,0.2l13.6,10l10.1-13.7l0.1-0.2l0,0
					c1.3-1.8,1.8-4.1,1.4-6.3l0,0l-2.7-16.8v-0.2l-2.7-16.8c-0.4-2.3-1.6-4.3-3.5-5.6l-0.2-0.2l-13.7-9.9l-10,13.8l0,0l-0.1,0.2l0,0
					C1368.8,408.9,1368.4,411.6,1369.1,414.1z"/>
				<path class="st6" d="M1358.5,482.3l13.8,10l0,0c1.8,1.3,4,1.9,6.3,1.6l0,0h0.2l16.8-2.7l-2.7-16.7c0-0.1,0-0.2,0-0.3
					c-0.4-2.6-2-4.9-4.4-6.2l-12.8-9.3l-0.2-0.1l-13-9.4c-1.9-1.8-4.4-2.6-7-2.3l0,0h-0.2l0,0l-16.8,2.7l2.6,16.7c0,0.1,0,0.2,0,0.3
					c0.4,2.3,1.6,4.3,3.5,5.6l13.8,10L1358.5,482.3z"/>
				<path class="st6" d="M1435.5,529.4h-0.2l0,0c-2.5,0.5-4.7,2.1-5.9,4.4l-9.4,13l-0.1,0.2l-9.3,12.8c-1.8,1.9-2.7,4.6-2.3,7.2
					c0,0.1,0,0.2,0,0.3l2.6,16.7l16.8-2.6h0.2l0,0c2.2-0.4,4.2-1.6,5.5-3.4l0,0l5.9-8.2v-40.9L1435.5,529.4z"/>
				<path class="st6" d="M1437.6,433.9l-16.8,2.7l0,0h-0.2l0,0c-2.6,0.5-4.8,2.1-6,4.3l-9.4,13l-0.1,0.2l-9.3,12.8
					c-1.8,1.9-2.7,4.6-2.3,7.2v0.3l2.6,16.7l16.8-2.6h0.2l0,0c2.2-0.4,4.2-1.7,5.5-3.5l0,0l10-13.8l0.1-0.2l10-13.8
					c0.2-0.2,0.3-0.5,0.5-0.7v-12.6L1437.6,433.9z"/>
				<path class="st3" d="M1303.2,480.1H1286v17l0,0v0.2l0,0c0.1,2.6,1.3,5,3.3,6.6l11.3,11.3l0.2,0.2l11.2,11.2
					c1.6,2.1,4.1,3.4,6.8,3.4h0.3l16.9,0.1l0.1-17v-0.2l0,0c0-2.2-1-4.4-2.5-5.9l0,0l-12-12l-0.2-0.2l-12-12
					C1307.7,481,1305.5,480.1,1303.2,480.1"/>
				<path class="st3" d="M1368.6,491.9l-0.2-0.2l-11.9-11.9l-12.1,12l0,0l-0.2,0.2l0,0c-1.8,1.9-2.6,4.4-2.3,7v32.2
					c-0.3,2.6,0.6,5.3,2.4,7.2l0.2,0.2l11.9,12l12.1-12l0.2-0.2l0,0c1.5-1.6,2.4-3.8,2.4-6l0,0V498
					C1371.1,495.7,1370.2,493.5,1368.6,491.9"/>
				<path class="st3" d="M1402.2,525.6l-0.2-0.2l-11.9-11.9l-12,12l0,0l-0.2,0.2l0,0c-1.8,1.9-2.6,4.4-2.3,7v32.1
					c-0.3,2.6,0.6,5.3,2.4,7.2l0.2,0.2l11.9,12l12.1-12l0.2-0.2l0,0c1.5-1.6,2.4-3.8,2.4-6l0,0v-34.3
					C1404.7,529.4,1403.8,527.2,1402.2,525.6"/>
				<path class="st3" d="M1435,605l0.2-0.2l0,0c1.5-1.6,2.4-3.8,2.4-6l0,0v-34.3c0-2.3-0.9-4.5-2.5-6.1l-0.2-0.2l-11.9-11.9l-12,12
					l0,0l-0.2,0.2l0,0c-1.8,1.9-2.6,4.4-2.3,7v32.1c-0.3,2.6,0.6,5.3,2.4,7.2l0.2,0.2l2.9,2.9h18.1L1435,605z"/>
				<path class="st3" d="M1297.6,562.9l-0.2-0.2l-11.9-11.9l12-12l0,0l0.2-0.2l0,0c1.9-1.8,4.4-2.6,7-2.3h32.1
					c2.6-0.3,5.3,0.6,7.2,2.4l0.2,0.2l12,11.9l-11.9,12.1l-0.2,0.2l0,0c-1.6,1.5-3.8,2.4-6,2.4h-34.3
					C1301.4,565.4,1299.2,564.5,1297.6,562.9"/>
				<path class="st3" d="M1331.3,596.6l-0.2-0.2l-11.9-11.9l12-12l0,0l0.2-0.2l0,0c1.9-1.8,4.4-2.6,7-2.3h32.1
					c2.6-0.3,5.3,0.6,7.2,2.4l0.2,0.2l12,11.9l-12,12.1l-0.2,0.2l0,0c-1.6,1.5-3.8,2.4-6,2.4h-34.3
					C1335,599.1,1332.8,598.2,1331.3,596.6"/>
				<path class="st3" d="M1410.6,605.4l-0.2-0.2c-1.9-1.9-4.5-2.8-7.2-2.4h-32.1c-2.6-0.3-5.1,0.5-7,2.3l0,0l-0.2,0.2l0,0l-2.7,2.7
					h51.9L1410.6,605.4z"/>
				<line class="st4" x1="1332.6" y1="528.8" x2="1411.8" y2="608"/>
				<path class="st6" d="M1286.4,503l11.3,11.3l0.2,0.2l11.2,11.2c1.6,2.1,4.1,3.4,6.8,3.4h0.3l16.9,0.1l0.1-17v-0.2l0,0
					c0-2.2-1-4.4-2.5-5.9l0,0l-12-12l-0.2-0.2l-12-12c-1.6-1.6-3.8-2.5-6.1-2.5H1283v17l0,0v0.2l0,0
					C1283.1,499,1284.3,501.5,1286.4,503z"/>
				<path class="st6" d="M1318,564.4h17c2.2,0,4.4-0.8,6-2.4l0,0l0.2-0.2l12-12.1l-12-11.9l-0.2-0.2c-1.9-1.9-4.5-2.8-7.2-2.4h-32.1
					c-2.6-0.3-5.1,0.5-7,2.3l0,0l-0.2,0.2l0,0l-12,12l11.9,11.9l0.2,0.2c1.6,1.6,3.8,2.5,6.1,2.5L1318,564.4L1318,564.4z"/>
				<path class="st6" d="M1372.6,531.7v32.1c-0.3,2.6,0.6,5.3,2.4,7.2l0.2,0.2l11.9,12l12.1-12l0.2-0.2l0,0c1.5-1.6,2.4-3.8,2.4-6
					l0,0v-34.3c0-2.3-0.9-4.5-2.5-6.1l-0.2-0.2l-11.9-11.9l-12,12l0,0l-0.2,0.2l0,0C1373.1,526.5,1372.3,529.1,1372.6,531.7z"/>
				<path class="st6" d="M1338.9,498v32.1c-0.3,2.6,0.6,5.3,2.4,7.2l0.2,0.2l11.9,12l12.1-12l0.2-0.2l0,0c1.5-1.6,2.4-3.8,2.4-6l0,0
					V497c0-2.3-0.9-4.5-2.5-6.1l-0.2-0.2l-11.9-11.9l-12,12l0,0l-0.2,0.2l0,0C1339.5,492.9,1338.6,495.5,1338.9,498z"/>
				<path class="st6" d="M1351.6,598.1h17c2.2,0,4.4-0.8,6-2.4l0,0l0.2-0.2l12-12.1l-12-11.9l-0.2-0.2c-1.9-1.9-4.5-2.8-7.2-2.4
					h-32.1c-2.6-0.3-5.1,0.5-7,2.3l0,0l-0.2,0.2l0,0l-12.1,12l11.9,11.9l0.2,0.2c1.6,1.6,3.8,2.5,6.1,2.5L1351.6,598.1L1351.6,598.1
					z"/>
				<path class="st6" d="M1428.1,608l4-3.9l0.2-0.2l0,0c1.5-1.6,2.4-3.8,2.4-6l0,0v-34.3c0-2.3-0.9-4.5-2.5-6.1l-0.2-0.2l-12-11.9
					l-12,12l-0.2,0.2l0,0c-1.8,1.9-2.6,4.4-2.3,7v32.1c-0.3,2.6,0.6,5.3,2.4,7.2l0.2,0.2l3.9,3.9L1428.1,608z"/>
				<path class="st6" d="M1407.7,604.4l-0.2-0.2c-1.9-1.9-4.5-2.8-7.2-2.4h-32.1c-2.6-0.3-5.1,0.5-7,2.3l0,0l-0.2,0.2l0,0l-3.7,3.7
					h53.9L1407.7,604.4z"/>
				<path class="st7" d="M605.6,571.3c-0.4-0.7,6.2-7.1,8-8.8c0.7-0.8,1.6-1.4,2.7-1.6c0,0,11.7-2.7,12.1-1.8c0.5,0.8-6.2,7.1-8,8.8
					c-0.7,0.8-1.6,1.4-2.7,1.6l0,0C617.7,569.4,606,572.1,605.6,571.3"/>
				<path class="st7" d="M604.8,571.6c0.4-0.7-6.2-7.1-8-8.8c-0.7-0.8-1.6-1.4-2.7-1.6c0,0-11.7-2.7-12.1-1.8
					c-0.5,0.8,6.2,7.1,8,8.8c0.7,0.8,1.6,1.4,2.7,1.6l0,0C592.6,569.8,604.3,572.4,604.8,571.6"/>
				<path class="st8" d="M617.1,554.8c0-3.8-3.1-6.9-6.9-6.9c-1.8,0-3.6,0.7-4.9,2l0,0c-2.8-2.6-7.1-2.5-9.7,0.3
					c-2.5,2.7-2.5,6.8,0,9.4l0,0l9.7,9.7l9.7-9.7l0,0C616.4,558.4,617.1,556.7,617.1,554.8"/>
				<path class="st9" d="M605.4,567.2V608 M605.1,569.5c0.4-0.7-6.2-7.1-8-8.8c-0.7-0.8-1.6-1.4-2.7-1.6l0,0c0,0-11.7-2.7-12.1-1.8
					c-0.5,0.8,6.2,7.1,8,8.8c0.7,0.8,1.6,1.4,2.7,1.6l0,0C593,567.7,604.7,570.4,605.1,569.5L605.1,569.5z M605.9,569.2
					c-0.4-0.7,6.2-7.1,8-8.8c0.7-0.8,1.6-1.4,2.7-1.6l0,0c0,0,11.7-2.7,12.1-1.8c0.5,0.8-6.2,7.1-8,8.8c-0.7,0.8-1.6,1.4-2.7,1.6
					l0,0C618,567.4,606.4,570,605.9,569.2L605.9,569.2z M617.2,552.5c0-3.8-3.1-6.9-6.9-6.9c-1.8,0-3.6,0.7-4.9,2l0,0
					c-2.8-2.6-7.1-2.5-9.7,0.3c-2.5,2.7-2.5,6.8,0,9.4l0,0l9.7,9.7l9.7-9.7l0,0C616.5,556.1,617.2,554.3,617.2,552.5z"/>
				<path class="st7" d="M1224.1,571.3c-0.4-0.7,6.2-7.1,8-8.8c0.4-0.5,0.8-0.9,1.4-1.2c0.4-0.2,0.8-0.4,1.3-0.4
					c0,0,11.7-2.7,12.1-1.8s-6.2,7.1-8,8.8c-0.4,0.5-0.8,0.9-1.4,1.2c-0.4,0.2-0.8,0.4-1.3,0.4l0,0
					C1236.2,569.4,1224.5,572.1,1224.1,571.3"/>
				<path class="st7" d="M1223.3,571.6c0.4-0.7-6.2-7.1-8-8.8c-0.7-0.8-1.6-1.4-2.7-1.6c0,0-11.7-2.7-12.1-1.8s6.2,7.1,8,8.8
					c0.4,0.5,0.8,0.9,1.4,1.2c0.4,0.2,0.8,0.4,1.3,0.4l0,0C1211.1,569.8,1222.8,572.5,1223.3,571.6"/>
				<path class="st8" d="M1235.6,554.8c0-3.8-3.1-6.9-6.9-6.9c-1.8,0-3.6,0.7-4.9,2l0,0c-2.8-2.6-7.1-2.5-9.7,0.3
					c-2.5,2.7-2.5,6.8,0,9.4l0,0l9.7,9.7l9.7-9.7l0,0C1234.8,558.4,1235.6,556.7,1235.6,554.8"/>
				<path class="st9" d="M1223.9,567.2V608 M1223.6,569.5c0.4-0.7-6.2-7.1-8-8.8c-0.7-0.8-1.6-1.4-2.7-1.6l0,0
					c0,0-11.7-2.7-12.1-1.8s6.2,7.1,8,8.8c0.7,0.8,1.6,1.4,2.7,1.6l0,0C1211.5,567.7,1223.2,570.4,1223.6,569.5L1223.6,569.5z
					 M1224.4,569.2c-0.4-0.7,6.2-7.1,8-8.8c0.7-0.8,1.6-1.4,2.7-1.6l0,0c0,0,11.7-2.7,12.1-1.8s-6.2,7.1-8,8.8
					c-0.7,0.8-1.6,1.4-2.7,1.6l0,0C1236.5,567.4,1224.9,570,1224.4,569.2L1224.4,569.2z M1235.7,552.5c0-3.8-3.1-6.9-6.9-6.9
					c-1.8,0-3.6,0.7-4.9,2l0,0c-2.8-2.6-7.1-2.5-9.7,0.3c-2.5,2.7-2.5,6.8,0,9.4l0,0l9.7,9.7l9.7-9.7l0,0
					C1235,556.1,1235.7,554.3,1235.7,552.5z"/>
				<path class="st3" d="M1030.4,113.2c-4.3,4.3-5.3,10.8-2.5,16.2l18.6-18.6C1041.2,107.9,1034.7,108.9,1030.4,113.2"/>
				<path class="st10" d="M1029,110.4c-4.3,4.3-5.3,10.8-2.4,16.2l18.6-18.7C1039.8,105.1,1033.2,106.1,1029,110.4z"/>
				<path class="st3" d="M1017.5,113.2c4.3,4.3,5.3,10.8,2.5,16.2l-18.6-18.6C1006.7,107.9,1013.3,108.9,1017.5,113.2"/>
				<path class="st10" d="M1018.9,110.4c4.3,4.3,5.3,10.8,2.5,16.2l-18.6-18.7C1008.1,105.1,1014.7,106.1,1018.9,110.4z"/>
				<path class="st3" d="M1164.2,77c-3,0.6-5.2,3.1-5.4,6.1l12.8-2.7C1170.1,77.8,1167.1,76.4,1164.2,77"/>
				<path class="st11" d="M1163.5,75.6c-3,0.6-5.2,3.1-5.4,6.1l12.8-2.7C1169.4,76.4,1166.5,75,1163.5,75.6z"/>
				<path class="st3" d="M1150.9,77c3,0.6,5.2,3.1,5.4,6.1l-12.8-2.7C1145,77.8,1148,76.4,1150.9,77"/>
				<path class="st11" d="M1151.6,75.6c3,0.6,5.2,3.1,5.4,6.1l-12.8-2.7C1145.7,76.4,1148.7,75,1151.6,75.6z"/>
				<path class="st7" d="M508.5,576L508.5,576H495c8.5-1.2,14.4-9.1,13.2-17.7c-1.1-7.6-7.5-13.2-15.2-13.4h-3.9
					c6.2-6,6.3-15.9,0.3-22.1c-6-6.2-15.9-6.3-22.1-0.3c-6.2,6-6.3,15.9-0.3,22.1c0.1,0.1,0.2,0.2,0.3,0.3h-5.5
					c-8.6,0-15.6,7.1-15.5,15.7c0,7.7,5.7,14.3,13.4,15.4h-13.6c-8.6,0-15.6,7-15.6,15.6c0,8.6,7,15.6,15.6,15.6h31.1l0,0h31.2h0.1
					c8.6,0,15.6-7,15.6-15.6C524.1,583,517.1,576,508.5,576"/>
				<path class="st12" d="M476.4,596l-15-15 M476.6,567.1l-15-15 M476.3,595.8l15-15 M476.8,567.1l15-15 M477.3,529.1l-1,76.1
					 M507.5,574L507.5,574H494c8.5-1.2,14.4-9.1,13.2-17.7c-1.1-7.6-7.5-13.2-15.2-13.4h-3.9c6.2-6,6.3-15.9,0.3-22.1
					c-6-6.2-15.9-6.3-22.1-0.3c-6.2,6-6.3,15.9-0.3,22.1c0.1,0.1,0.2,0.2,0.3,0.3h-5.6c-8.6,0-15.6,7.1-15.5,15.7
					c0,7.7,5.7,14.3,13.4,15.4h-13.6c-8.6,0-15.6,7-15.6,15.6c0,8.6,7,15.6,15.6,15.6h62.4c8.6,0,15.6-7,15.6-15.6
					C523.1,581,516.1,574,507.5,574L507.5,574z"/>
				<path class="st7" d="M1161.4,576L1161.4,576H1148c8.5-1.2,14.4-9.1,13.2-17.7c-1.1-7.6-7.5-13.2-15.2-13.4h-3.9
					c6.2-6,6.3-15.9,0.3-22.1c-6-6.2-15.9-6.3-22.1-0.3c-6.2,6-6.3,15.9-0.3,22.1c0.1,0.1,0.2,0.2,0.3,0.3h-5.6
					c-8.6,0-15.6,7.1-15.5,15.7c0,7.7,5.7,14.3,13.4,15.4H1099c-8.6,0-15.6,7-15.6,15.6c0,8.6,7,15.6,15.6,15.6h31.1l0,0h31.2h0.1
					c8.6,0,15.6-7,15.6-15.6C1177.1,583,1170.1,576,1161.4,576"/>
				<path class="st12" d="M1129.4,596l-15-15 M1129.5,567.1l-15-15 M1129.2,595.8l15-15 M1129.7,567.1l15-15 M1130.2,529.1l-1,76.1
					 M1160.4,574L1160.4,574H1147c8.5-1.2,14.4-9.1,13.2-17.7c-1.1-7.6-7.5-13.2-15.2-13.4h-4c6.2-6,6.3-15.9,0.3-22.1
					c-6-6.2-15.9-6.3-22.1-0.3c-6.2,6-6.3,15.9-0.3,22.1c0.1,0.1,0.2,0.2,0.3,0.3h-5.6c-8.6,0-15.6,7.1-15.5,15.7
					c0,7.7,5.7,14.3,13.4,15.4H1098c-8.6,0-15.6,7-15.6,15.6c0,8.6,7,15.6,15.6,15.6h62.4c8.6,0,15.6-7,15.6-15.6
					C1176.1,581,1169.1,574,1160.4,574L1160.4,574z"/>
				<path class="st13" d="M265.9,416.5c10.7-11.6,10-29.7-1.6-40.4c-1.9-1.8-4-3.2-6.3-4.4c9.7-19.8,4-43.7-13.8-56.8
					c5-15-3.2-31.2-18.2-36.2s-31.2,3.2-36.2,18.2c-1.9,5.8-1.9,12.1,0,18c-17.6,13.1-23.5,36.8-13.9,56.5
					c-14.2,6.9-20.2,24-13.3,38.2c1.2,2.5,2.8,4.9,4.7,6.9c-29.3,27.2-30.9,73-3.7,102.3c27.2,29.3,73,30.9,102.3,3.7
					c29.3-27.2,30.9-73,3.7-102.3C268.5,419,267.2,417.7,265.9,416.5"/>
				<path class="st6" d="M214.3,299.8v307.8 M263.1,410c10.7-11.6,10-29.7-1.6-40.4c-1.9-1.8-4-3.2-6.3-4.4
					c9.7-19.8,4-43.7-13.8-56.8c5-15-3.2-31.2-18.2-36.2c-15-5-31.2,3.2-36.2,18.2c-1.9,5.8-1.9,12.1,0,18
					c-17.6,13.1-23.4,36.8-13.9,56.5c-14.2,6.9-20.2,24-13.3,38.2c1.2,2.5,2.8,4.9,4.7,6.9c-29.3,27.2-30.9,73-3.7,102.3
					c27.2,29.3,73,30.9,102.3,3.7c29.3-27.2,30.9-73,3.7-102.3C265.7,412.4,264.4,411.2,263.1,410z"/>
			</g>
		</g>
		<polygon class="st3" points="1042.2,286.9 947,287.6 946.8,261.3 880.7,261.9 881.2,328 902.9,327.8 904,465.1 1010.8,464.2 
			1010.2,393 1043.1,392.7 		"/>
		<path class="st14" d="M974.8,457.9l0.1,148.6h25.4 M938.6,457.9l0.1,148.6h-25.4 M1038.9,280.2l-95.2,0.8l-0.2-26.3l-66.1,0.5
			l0.5,66.1l21.7-0.2l1.2,137.3l106.8-0.9l-0.6-71.2l32.9-0.3L1038.9,280.2z"/>
		<g>
			<g>
				<path class="st15" d="M974.5,341.9L974.5,341.9c-2.5,0-4.5-2-4.5-4.5s2-4.5,4.5-4.5c2.5,0,4.5,2,4.5,4.5
					C979,339.9,977,341.9,974.5,341.9"/>
				<path class="st14" d="M974.5,341.9L974.5,341.9c-2.5,0-4.5-2-4.5-4.5s2-4.5,4.5-4.5c2.5,0,4.5,2,4.5,4.5
					C979,339.9,977,341.9,974.5,341.9z"/>
				<path class="st15" d="M925.8,343L925.8,343c-2.5,0-4.5-2-4.5-4.5c0-2.5,2-4.5,4.5-4.5c2.5,0,4.5,2,4.5,4.5
					C930.2,341,928.2,343,925.8,343"/>
				<path class="st14" d="M925.8,343L925.8,343c-2.5,0-4.5-2-4.5-4.5c0-2.5,2-4.5,4.5-4.5c2.5,0,4.5,2,4.5,4.5
					C930.2,341,928.2,343,925.8,343z"/>
				<path class="st16" d="M1007,402.6c8.2,17.6,12.5,36.7,12.6,56 M900.2,403.8l-31.3,54.3"/>
				<path class="st17" d="M832.9,483.5c8-13,3.9-30-9.1-38c-12.2-7.5-28-4.5-36.6,7c-20.6-12.6-46.3-13.7-68-2.8
					c-17.3-17.1-45.2-16.9-62.3,0.4c-17.1,17.3-16.9,45.2,0.4,62.3c6.7,6.6,15.3,10.9,24.6,12.2c7,37.9,43.4,63,81.3,56.1
					c24.6-4.5,44.9-21.8,53.2-45.4c1.1,0.1,2.2,0.2,3.3,0.2c15.3,0,27.6-12.4,27.6-27.6C847.4,497.7,841.8,488.3,832.9,483.5"/>
				<path class="st18" d="M732.8,571.7v34.9h14.3 M761.1,571.7v34.9h14.3 M828.4,474.6c7.9-13.1,3.7-30-9.3-37.9
					c-12.1-7.3-27.7-4.3-36.3,6.9c-20.6-12.6-46.3-13.7-68-2.8c-17.3-17.1-45.2-16.9-62.3,0.4c-17.1,17.3-16.9,45.2,0.4,62.3
					c6.7,6.6,15.3,10.9,24.6,12.2c7,37.9,43.4,63,81.3,56.1c24.6-4.5,44.9-21.8,53.2-45.4c1.1,0.1,2.2,0.2,3.3,0.2
					c15.3,0,27.6-12.4,27.6-27.6C843,488.7,837.4,479.4,828.4,474.6L828.4,474.6z"/>
				<path class="st15" d="M736.9,490.5c0.1,2.1,1.8,3.7,3.9,3.6c2.1-0.1,3.7-1.8,3.6-3.9c-0.1-2.1-1.8-3.7-3.9-3.6c0,0,0,0,0,0
					C738.5,486.7,736.8,488.4,736.9,490.5"/>
				
					<ellipse transform="matrix(0.9992 -3.960861e-02 3.960861e-02 0.9992 -18.8406 29.7203)" class="st18" cx="740.6" cy="490.3" rx="3.7" ry="3.7"/>
				<path class="st15" d="M792.1,488.3c0.1,2.1,1.8,3.7,3.9,3.6c2.1-0.1,3.7-1.8,3.6-3.9c-0.1-2.1-1.8-3.7-3.9-3.6c0,0,0,0,0,0
					C793.7,484.5,792.1,486.2,792.1,488.3"/>
				
					<ellipse transform="matrix(0.9992 -3.960861e-02 3.960861e-02 0.9992 -18.7107 31.9057)" class="st18" cx="795.9" cy="488.2" rx="3.7" ry="3.7"/>
				<path class="st19" d="M707.8,528.8c0,0-13.4,38.8-6,56.8"/>
				<path class="st18" d="M808.1,535.5c0,0,48-42.1,57.7-70.6"/>
			</g>
		</g>
	</g>
</g>
</svg>
