<?xml version="1.0" encoding="utf-8"?>
<!-- Generator: Adobe Illustrator 21.1.0, SVG Export Plug-In . SVG Version: 6.00 Build 0)  -->
<svg version="1.1" id="Layer_1" xmlns="http://www.w3.org/2000/svg" xmlns:xlink="http://www.w3.org/1999/xlink" x="0px" y="0px"
	 viewBox="0 0 1113 611.9" style="enable-background:new 0 0 1113 611.9;" xml:space="preserve">
<style type="text/css">
	.st0{clip-path:url(#SVGID_2_);}
	.st1{fill:#EFC57D;}
	.st2{fill:#FADEAD;}
	.st3{fill:#6399CC;}
	.st4{fill:none;stroke:#4D5261;stroke-width:1.09;stroke-miterlimit:10;}
	.st5{clip-path:url(#SVGID_4_);}
	.st6{fill:none;stroke:#4D5261;stroke-width:1.05;stroke-miterlimit:10;}
	.st7{fill:#51B3C0;}
	.st8{fill:#E37563;}
	.st9{fill:none;stroke:#4D5261;stroke-width:0.67;stroke-miterlimit:10;}
	.st10{fill:none;stroke:#4D5261;stroke-width:0.95;stroke-miterlimit:10;}
	.st11{fill:none;stroke:#4D5261;stroke-width:0.47;stroke-miterlimit:10;}
	.st12{fill:none;stroke:#4D5261;stroke-width:0.73;stroke-miterlimit:10;}
	.st13{fill:#52B2BF;}
	.st14{fill:none;stroke:#4D5261;stroke-width:2.23;stroke-miterlimit:10;}
	.st15{clip-path:url(#SVGID_6_);}
	.st16{fill:#FFFFFF;}
	.st17{fill:none;stroke:#4D5261;stroke-width:1.93;stroke-linecap:round;stroke-miterlimit:10;}
	.st18{fill:#87BFDE;}
	.st19{fill:none;stroke:#4D5261;stroke-width:1.81;stroke-miterlimit:10;}
	.st20{fill:none;stroke:#4D5261;stroke-width:1.81;stroke-linecap:round;stroke-miterlimit:10;}
</style>
<title>Asset 3</title>
<g id="Layer_2">
	<g id="Layer_1-2">
		<g>
			<defs>
				<rect id="SVGID_1_" y="154.8" width="1127.7" height="477.1"/>
			</defs>
			<clipPath id="SVGID_2_">
				<use xlink:href="#SVGID_1_"  style="overflow:visible;"/>
			</clipPath>
			<g class="st0">
				<path class="st1" d="M1112.5,455.6V305.4c0.2-2.8,0.4-5.6,0.4-8.5c0.4-52.7-42-95.8-94.8-96.2s-95.8,42-96.2,94.8l0,0v79
					c0,20.4-16.6,37-37,37s-37-16.6-37-37v-15h-0.2c-2.3-32.5-30.6-57-63.1-54.6c-29.3,2.1-52.6,25.4-54.6,54.6h-0.2v134
					c0,20.4-16.6,37-37,37s-37-16.6-37-37l0,0h-0.1c-1.6-32.5-29.4-57.6-61.9-56c-30.2,1.5-54.4,25.7-56,56h-0.1v118h574.6
					L1112.5,455.6L1112.5,455.6z"/>
				<rect x="1112.5" y="455.6" class="st1" width="0.1" height="155.8"/>
				<path class="st2" d="M952.8,364.4c-2.3-32.5-30.6-57-63.1-54.6c-29.3,2.1-52.6,25.4-54.6,54.6h-0.2v56c0,20.4-16.6,37-37,37
					c-17.8,0-33.1-12.7-36.4-30.3V305.4c0.2-2.8,0.4-5.6,0.4-8.5c0.4-52.7-42-95.8-94.8-96.2s-95.8,42-96.2,94.8l0,0v79
					c0,20.4-16.6,37-37,37s-37-16.6-37-37l0,0v-15h-0.1c-2.3-32.5-30.6-57-63.1-54.6c-29.3,2.1-52.6,25.4-54.6,54.6h-0.1v134
					c0,20.4-16.6,37-37,37s-37-16.6-37-37h-0.1c-1.6-32.5-29.4-57.6-61.9-56c-30.2,1.5-54.4,25.7-56,56h-0.1v118h766v-247
					L952.8,364.4z"/>
				<path class="st3" d="M1075.6,437.8l-0.2-0.1l-11.7-8.5l-8.6,11.8l0,0l-0.1,0.2l0,0c-1.3,1.8-1.6,4.1-1,6.3l2.2,13.6v0.2
					l2.1,13.4c0.1,2.3,1.2,4.4,3,5.8l0.2,0.1l11.7,8.5l8.6-11.8l0.1-0.2l0,0c1.1-1.6,1.5-3.5,1.2-5.4l0,0l-2.3-14.4v-0.2l-2.3-14.4
					C1078.2,440.7,1077.1,439,1075.6,437.8"/>
				<path class="st3" d="M1098.2,466.7h-0.2l0,0c-2.2,0.4-4.1,1.8-5.1,3.7l-8.1,11.1l-0.1,0.2l-8,11c-1.6,1.7-2.3,3.9-1.9,6.2
					c0,0.1,0,0.2,0,0.2l2.2,14.3l14.4-2.2h0.2l0,0c1.9-0.3,3.6-1.4,4.7-3l0,0l8.6-11.8l0.1-0.2l7.4-10.2v-21.6L1098.2,466.7z"/>
				<path class="st3" d="M1104.6,507h-0.2l0,0c-2.2,0.4-4.1,1.8-5.1,3.7l-8.1,11.2l-0.1,0.2l-8,11c-1.6,1.7-2.3,3.9-1.9,6.2
					c0,0.1,0,0.2,0,0.2l2.2,14.3l14.4-2.2h0.2l0,0c1.9-0.4,3.6-1.4,4.7-3l0,0l8.6-11.8l0.1-0.2l1-1.4v-29.4L1104.6,507z"/>
				<path class="st3" d="M1110.8,546.3h-0.2l0,0c-2.2,0.4-4.1,1.8-5.1,3.7l-8.1,11.1l-0.1,0.2l-8,11c-1.6,1.7-2.3,3.9-1.9,6.2
					c0,0.1,0,0.2,0,0.2l2.2,14.3l14.4-2.2h0.2l0,0c1.9-0.4,3.6-1.4,4.7-3l0,0l3.5-4.8v-37L1110.8,546.3z"/>
				<path class="st3" d="M1030,492.4c0-0.1,0-0.2,0-0.2l-2.3-14.3l14.4-2.3h0.2l0,0c2.2-0.3,4.4,0.5,6,2l11.1,8.1l0.2,0.1l11,8
					c2,1.1,3.4,3,3.8,5.3c0,0.1,0,0.2,0,0.2l2.3,14.3l-14.4,2.3h-0.2l0,0c-1.9,0.3-3.8-0.2-5.4-1.4l0,0l-11.8-8.6l-0.2-0.1
					l-11.8-8.6C1031.3,496.1,1030.3,494.3,1030,492.4"/>
				<path class="st3" d="M1036.4,532.7c0-0.1,0-0.2,0-0.2l-2.3-14.3l14.4-2.3l0,0h0.2l0,0c2.2-0.3,4.4,0.5,6,2l11.1,8.1l0.2,0.1
					l11,8c2,1.1,3.4,3,3.8,5.3c0,0.1,0,0.2,0,0.2l2.3,14.3l-14.4,2.3h-0.2l0,0c-1.9,0.3-3.8-0.2-5.4-1.4l0,0l-11.8-8.6l-0.2-0.1
					l-11.8-8.6C1037.7,536.4,1036.6,534.7,1036.4,532.7"/>
				<path class="st3" d="M1042.6,572c0-0.1,0-0.2,0-0.2l-2.3-14.3l14.4-2.3h0.2l0,0c2.2-0.3,4.4,0.5,6,2l11.1,8.1l0.2,0.1l11,8
					c2,1.1,3.4,3,3.8,5.3c0,0.1,0,0.2,0,0.2l2.3,14.3l-14.4,2.4h-0.2l0,0c-1.9,0.3-3.8-0.2-5.4-1.4l0,0l-11.8-8.6l-0.2-0.1
					l-11.8-8.6C1043.9,575.7,1042.9,574,1042.6,572"/>
			</g>
		</g>
		<line class="st4" x1="1071.5" y1="486.4" x2="1090.8" y2="608.7"/>
		<g>
			<defs>
				<rect id="SVGID_3_" y="154.8" width="1127.7" height="477.1"/>
			</defs>
			<clipPath id="SVGID_4_">
				<use xlink:href="#SVGID_3_"  style="overflow:visible;"/>
			</clipPath>
			<g class="st5">
				<path class="st6" d="M1103.1,504.8h-0.2l0,0c-2.2,0.4-4.1,1.8-5.1,3.7l-8.1,11.1l-0.1,0.2l-8,11c-1.6,1.7-2.3,3.9-1.9,6.2
					c0,0.1,0,0.2,0,0.2l2.2,14.3l14.4-2.2h0.2l0,0c1.9-0.3,3.6-1.4,4.7-3l0,0l8.6-11.8l0.1-0.2l2.6-3.6v-27.5L1103.1,504.8z"/>
				<path class="st6" d="M1049.7,544l11.8,8.6l0,0c1.5,1.1,3.5,1.6,5.4,1.4l0,0h0.2l14.4-2.3l-2.3-14.3c0-0.1,0-0.2,0-0.2
					c-0.4-2.3-1.7-4.2-3.8-5.3l-11-8l-0.2-0.1l-11.1-8.1c-1.6-1.5-3.8-2.3-6-2l0,0h-0.2l0,0l-14.4,2.3l2.3,14.3c0,0.1,0,0.2,0,0.2
					c0.3,1.9,1.4,3.7,3,4.8l11.8,8.6L1049.7,544z"/>
				<path class="st6" d="M1085.4,576.4c-0.4-2.3-1.7-4.2-3.8-5.3l-11-8l-0.2-0.1l-11.1-8.1c-1.6-1.5-3.8-2.3-6-2l0,0h-0.2l0,0
					l-14.4,2.3l2.3,14.3c0,0.1,0,0.2,0,0.2c0.3,1.9,1.4,3.7,3,4.8l11.8,8.6l0.2,0.1l11.8,8.6l0,0c1.5,1.1,3.5,1.6,5.4,1.4l0,0h0.2
					l14.4-2.4l-2.3-14.3C1085.4,576.5,1085.4,576.5,1085.4,576.4z"/>
				<path class="st6" d="M1052.4,445.2l2.2,13.6v0.2l2.1,13.4c0.1,2.3,1.2,4.4,3,5.8l0.2,0.1l11.7,8.5l8.6-11.8l0.1-0.2l0,0
					c1.1-1.6,1.5-3.5,1.2-5.4l0,0l-2.3-14.4v-0.2l-2.3-14.4c-0.3-1.9-1.4-3.7-3-4.8l-0.2-0.1L1062,427l-8.5,11.8l0,0l-0.1,0.2l0,0
					C1052.1,440.8,1051.8,443.1,1052.4,445.2z"/>
				<path class="st6" d="M1043.4,503.7l11.8,8.6l0,0c1.5,1.1,3.5,1.6,5.4,1.4l0,0h0.2l14.4-2.4l-2.3-14.3c0-0.1,0-0.2,0-0.2
					c-0.4-2.3-1.7-4.2-3.8-5.3l-11-8l-0.2-0.1l-11.1-8.1c-1.6-1.5-3.8-2.3-6-2l0,0h-0.2l0,0l-14.4,2.3l2.3,14.3c0,0.1,0,0.2,0,0.2
					c0.3,1.9,1.4,3.7,3,4.8l11.8,8.6L1043.4,503.7z"/>
				<path class="st6" d="M1109.3,544.1h-0.2l0,0c-2.2,0.4-4,1.8-5.1,3.7l-8.1,11.1l-0.1,0.2l-8,11c-1.6,1.7-2.3,3.9-1.9,6.2
					c0,0.1,0,0.2,0,0.2l2.2,14.3l14.4-2.2h0.2l0,0c1.9-0.3,3.6-1.4,4.7-3l0,0l5.1-7v-35.1L1109.3,544.1z"/>
				<path class="st6" d="M1111.1,462.2l-14.4,2.3l0,0h-0.2l0,0c-2.2,0.4-4.1,1.8-5.1,3.7l-8.1,11.1l-0.1,0.2l-8,11
					c-1.6,1.7-2.3,3.9-1.9,6.2v0.2l2.2,14.3l14.4-2.2h0.2l0,0c1.9-0.4,3.6-1.4,4.7-3l0,0l8.6-11.8l0.1-0.2l8.6-11.8
					c0.1-0.2,0.3-0.4,0.4-0.6v-10.8L1111.1,462.2z"/>
				<path class="st3" d="M995.9,501.8h-14.7v14.6l0,0v0.2l0,0c0.1,2.2,1.1,4.3,2.9,5.7l9.7,9.7l0.1,0.1l9.6,9.6
					c1.4,1.8,3.5,2.9,5.8,2.9h0.2l14.5,0.1l0.1-14.6v-0.2l0,0c0-1.9-0.8-3.7-2.2-5.1l0,0l-10.3-10.3l-0.1-0.1l-10.3-10.3
					C999.8,502.6,997.9,501.8,995.9,501.8"/>
				<path class="st3" d="M1052,511.9l-0.2-0.2l-10.2-10.2l-10.4,10.3l0,0l-0.1,0.1l0,0c-1.5,1.6-2.3,3.8-2,6v27.6
					c-0.3,2.3,0.5,4.5,2.1,6.1l0.2,0.2l10.2,10.3l10.4-10.3l0.1-0.1l0,0c1.3-1.4,2.1-3.2,2.1-5.1l0,0v-29.4
					C1054.1,515.2,1053.3,513.3,1052,511.9"/>
				<path class="st3" d="M1080.8,540.8l-0.2-0.2l-10.2-10.2l-10.3,10.3l0,0l-0.1,0.1l0,0c-1.5,1.6-2.3,3.8-2,6v27.5
					c-0.3,2.3,0.5,4.5,2.1,6.1l0.2,0.2l10.2,10.3l10.4-10.3l0.1-0.1l0,0c1.3-1.4,2.1-3.2,2.1-5.1l0,0V546
					C1082.9,544.1,1082.2,542.2,1080.8,540.8"/>
				<path class="st3" d="M1108.9,608.8l0.1-0.1l0,0c1.3-1.4,2.1-3.2,2.1-5.1l0,0v-29.4c0-2-0.8-3.8-2.2-5.2l-0.2-0.2l-10.2-10.2
					l-10.3,10.3l0,0l-0.1,0.1l0,0c-1.5,1.6-2.3,3.8-2,6v27.5c-0.3,2.3,0.5,4.5,2.1,6.1l0.2,0.2l2.5,2.5h15.5L1108.9,608.8z"/>
				<path class="st3" d="M991.1,572.8l-0.2-0.2l-10.2-10.2l10.3-10.3l0,0l0.1-0.1l0,0c1.6-1.5,3.8-2.3,6-2h27.5
					c2.3-0.3,4.5,0.5,6.2,2.1l0.2,0.2l10.3,10.2l-10.2,10.4l-0.1,0.1l0,0c-1.4,1.3-3.2,2.1-5.1,2h-29.4
					C994.4,575,992.5,574.2,991.1,572.8"/>
				<path class="st3" d="M1020,601.6l-0.2-0.2l-10.2-10.2l10.3-10.3l0,0l0.1-0.1l0,0c1.6-1.5,3.8-2.3,6-2h27.5
					c2.3-0.3,4.5,0.5,6.2,2.1l0.2,0.2l10.3,10.2l-10.3,10.4l-0.1,0.1l0,0c-1.4,1.3-3.2,2.1-5.1,2h-29.4
					C1023.2,603.8,1021.3,603,1020,601.6"/>
				<path class="st3" d="M1088,609.2l-0.2-0.2c-1.6-1.6-3.9-2.4-6.2-2.1h-27.5c-2.2-0.3-4.4,0.5-6,2l0,0l-0.1,0.1l0,0l-2.3,2.3h44.5
					L1088,609.2z"/>
				<line class="st4" x1="1021.2" y1="543.6" x2="1089" y2="611.4"/>
				<path class="st6" d="M981.5,521.5l9.7,9.7l0.1,0.1l9.6,9.6c1.4,1.8,3.5,2.9,5.8,2.9h0.2l14.5,0.1l0.1-14.6v-0.2l0,0
					c0-1.9-0.8-3.7-2.2-5.1l0,0l-10.3-10.3l-0.1-0.1l-10.3-10.3c-1.4-1.4-3.3-2.2-5.2-2.2h-14.7v14.6l0,0v0.2l0,0
					C978.7,518.1,979.8,520.1,981.5,521.5z"/>
				<path class="st6" d="M1008.6,574.1h14.6c1.9,0,3.8-0.7,5.1-2l0,0l0.1-0.1l10.3-10.4l-10.3-10.2l-0.2-0.2
					c-1.6-1.6-3.9-2.4-6.2-2.1h-27.5c-2.2-0.3-4.4,0.5-6,2l0,0l-0.1,0.1l0,0l-10.3,10.3l10.2,10.2l0.2,0.2c1.4,1.4,3.3,2.2,5.2,2.2
					L1008.6,574.1L1008.6,574.1z"/>
				<path class="st6" d="M1055.4,546.1v27.5c-0.3,2.3,0.5,4.5,2.1,6.1l0.2,0.2l10.2,10.3l10.4-10.3l0.1-0.1l0,0
					c1.3-1.4,2.1-3.2,2.1-5.1l0,0v-29.4c0-2-0.8-3.8-2.2-5.2l-0.2-0.2l-10.2-10.2l-10.3,10.3l0,0l-0.1,0.1l0,0
					C1055.8,541.6,1055.1,543.8,1055.4,546.1z"/>
				<path class="st6" d="M1026.6,517.2v27.5c-0.3,2.3,0.5,4.5,2.1,6.1l0.2,0.2l10.2,10.3l10.4-10.3l0.1-0.1l0,0
					c1.3-1.4,2.1-3.2,2.1-5.1l0,0v-29.4c0-2-0.8-3.8-2.2-5.2l-0.2-0.2l-10.2-10.2l-10.3,10.3l0,0l-0.1,0.1l0,0
					C1027,512.8,1026.3,515,1026.6,517.2z"/>
				<path class="st6" d="M1037.4,603h14.6c1.9,0,3.8-0.7,5.1-2l0,0l0.1-0.1l10.3-10.4l-10.3-10.2l-0.2-0.2c-1.6-1.6-3.9-2.4-6.2-2.1
					h-27.5c-2.2-0.3-4.4,0.5-6,2l0,0l-0.1,0.1l0,0l-10.3,10.3l10.2,10.2l0.2,0.2c1.4,1.4,3.3,2.2,5.2,2.2H1037.4L1037.4,603z"/>
				<path class="st6" d="M1103,611.4l3.4-3.4l0.1-0.1l0,0c1.3-1.4,2.1-3.2,2.1-5.1l0,0v-29.4c0-2-0.8-3.8-2.2-5.2l-0.2-0.2
					l-10.2-10.2l-10.3,10.3l-0.1,0.1l0,0c-1.5,1.6-2.3,3.8-2,6v27.5c-0.3,2.3,0.5,4.5,2.1,6.2l0.2,0.2l3.3,3.4L1103,611.4z"/>
				<path class="st6" d="M1085.5,608.4l-0.2-0.2c-1.6-1.6-3.9-2.4-6.2-2.1h-27.5c-2.2-0.3-4.4,0.5-6,2l0,0l-0.1,0.1l0,0l-3.2,3.2
					h46.2L1085.5,608.4z"/>
				<path class="st7" d="M398.1,579.9c-0.3-0.6,5.3-6.1,6.9-7.5c0.6-0.7,1.4-1.2,2.3-1.4c0,0,10-2.3,10.4-1.6
					c0.4,0.7-5.3,6.1-6.9,7.5c-0.6,0.7-1.4,1.2-2.3,1.4l0,0C408.5,578.4,398.5,580.7,398.1,579.9"/>
				<path class="st7" d="M397.4,580.2c0.3-0.6-5.3-6.1-6.9-7.5c-0.6-0.7-1.4-1.2-2.3-1.4c0,0-10-2.3-10.4-1.6
					c-0.4,0.7,5.3,6.1,6.9,7.5c0.6,0.7,1.4,1.2,2.3,1.4l0,0C387,578.7,397,581,397.4,580.2"/>
				<path class="st8" d="M408,565.8c0-3.3-2.6-5.9-5.9-5.9c-1.6,0-3.1,0.6-4.2,1.8l0,0c-2.4-2.2-6.1-2.1-8.3,0.3
					c-2.1,2.3-2.1,5.8,0,8.1l0,0l8.3,8.3l8.3-8.3l0,0C407.4,568.9,408,567.4,408,565.8"/>
				<path class="st9" d="M398,576.4v35 M397.7,578.5c0.3-0.6-5.3-6.1-6.9-7.5c-0.6-0.7-1.4-1.2-2.3-1.4l0,0c0,0-10-2.3-10.4-1.6
					c-0.4,0.7,5.3,6.1,6.9,7.5c0.6,0.7,1.4,1.2,2.3,1.4l0,0C387.3,576.9,397.4,579.2,397.7,578.5L397.7,578.5z M398.4,578.2
					c-0.3-0.6,5.3-6.1,6.9-7.5c0.6-0.7,1.4-1.2,2.3-1.4l0,0c0,0,10-2.3,10.4-1.6c0.4,0.7-5.3,6.1-6.9,7.5c-0.6,0.7-1.4,1.2-2.3,1.4
					l0,0C408.8,576.6,398.8,578.8,398.4,578.2L398.4,578.2z M408.1,563.8c0-3.3-2.6-5.9-5.9-5.9c-1.6,0-3.1,0.6-4.2,1.8l0,0
					c-2.4-2.2-6.1-2.1-8.3,0.3c-2.1,2.3-2.1,5.8,0,8.1l0,0l8.3,8.3l8.3-8.3l0,0C407.5,566.9,408.1,565.4,408.1,563.8z"/>
				<path class="st7" d="M928.1,579.9c-0.3-0.6,5.3-6.1,6.8-7.5c0.3-0.4,0.7-0.8,1.2-1c0.3-0.2,0.7-0.3,1.1-0.4c0,0,10-2.3,10.4-1.6
					c0.4,0.7-5.3,6.1-6.8,7.5c-0.3,0.4-0.7,0.8-1.2,1c-0.3,0.2-0.7,0.3-1.1,0.4l0,0C938.5,578.4,928.5,580.7,928.1,579.9"/>
				<path class="st7" d="M927.4,580.2c0.3-0.6-5.3-6.1-6.8-7.5c-0.6-0.7-1.4-1.2-2.3-1.4c0,0-10-2.3-10.4-1.6
					c-0.4,0.7,5.3,6.1,6.8,7.5c0.3,0.4,0.7,0.8,1.2,1c0.3,0.2,0.7,0.3,1.1,0.4l0,0C917,578.7,927,581,927.4,580.2"/>
				<path class="st8" d="M938,565.8c0-3.3-2.6-5.9-5.9-5.9c-1.6,0-3.1,0.6-4.2,1.8l0,0c-2.4-2.2-6.1-2.1-8.3,0.3
					c-2.1,2.3-2.1,5.8,0,8.1l0,0l8.3,8.3l8.3-8.3l0,0C937.4,568.9,938,567.4,938,565.8"/>
				<path class="st9" d="M928,576.4v35 M927.7,578.5c0.3-0.6-5.3-6.1-6.8-7.5c-0.6-0.7-1.4-1.2-2.3-1.4l0,0c0,0-10-2.3-10.4-1.6
					c-0.4,0.7,5.3,6.1,6.8,7.5c0.6,0.7,1.4,1.2,2.3,1.4l0,0C917.3,576.9,927.4,579.2,927.7,578.5L927.7,578.5z M928.4,578.2
					c-0.3-0.6,5.3-6.1,6.8-7.5c0.6-0.7,1.4-1.2,2.3-1.4l0,0c0,0,10-2.3,10.4-1.6c0.4,0.7-5.3,6.1-6.8,7.5c-0.6,0.7-1.4,1.2-2.3,1.4
					l0,0C938.8,576.6,928.8,578.8,928.4,578.2L928.4,578.2z M938.1,563.8c0-3.3-2.6-5.9-5.9-5.9c-1.6,0-3.1,0.6-4.2,1.8l0,0
					c-2.4-2.2-6.1-2.1-8.3,0.3c-2.1,2.3-2.1,5.8,0,8.1l0,0l8.3,8.3l8.3-8.3l0,0C937.5,566.9,938.1,565.4,938.1,563.8z"/>
				<path class="st3" d="M839.3,187.4c-3.7,3.7-4.5,9.3-2.1,13.8l15.9-15.9C848.6,182.9,842.9,183.7,839.3,187.4"/>
				<path class="st10" d="M838.1,185c-3.7,3.7-4.5,9.3-2.1,13.9l15.9-16C847.3,180.5,841.7,181.3,838.1,185z"/>
				<path class="st3" d="M828.3,187.4c3.7,3.7,4.5,9.3,2.1,13.8l-15.9-15.9C819,182.9,824.6,183.7,828.3,187.4"/>
				<path class="st10" d="M829.5,185c3.7,3.7,4.5,9.3,2.1,13.9l-15.9-16C820.2,180.5,825.8,181.3,829.5,185z"/>
				<path class="st3" d="M876.8,156.4c-2.5,0.5-4.4,2.7-4.7,5.2l11-2.3C881.9,157.1,879.3,155.9,876.8,156.4"/>
				<path class="st11" d="M876.2,155.2c-2.5,0.5-4.4,2.7-4.7,5.2l11-2.3C881.3,155.9,878.8,154.7,876.2,155.2z"/>
				<path class="st3" d="M865.5,156.4c2.5,0.5,4.4,2.7,4.7,5.2l-11-2.3C860.4,157.1,863,155.9,865.5,156.4"/>
				<path class="st11" d="M866,155.2c2.5,0.5,4.4,2.7,4.7,5.2l-11-2.3C861,155.9,863.5,154.7,866,155.2z"/>
				<path class="st7" d="M314.9,584L314.9,584h-11.5c7.3-1.1,12.4-7.8,11.3-15.1c-0.9-6.5-6.4-11.3-13-11.5h-3.4
					c5.3-5.1,5.4-13.6,0.3-18.9c-5.1-5.3-13.6-5.4-18.9-0.3s-5.4,13.6-0.3,18.9c0.1,0.1,0.2,0.2,0.3,0.3H275
					c-7.4,0-13.3,6-13.3,13.4c0,6.6,4.9,12.2,11.4,13.2h-11.7c-7.4,0-13.4,6-13.4,13.4c0,7.4,6,13.4,13.4,13.4h26.7l0,0h26.7h0.1
					c7.4,0,13.4-6,13.4-13.4C328.3,590,322.3,584,314.9,584"/>
				<path class="st12" d="M287.5,601.1l-12.9-12.9 M287.6,576.4l-12.9-12.9 M287.3,601l12.9-12.9 M287.7,576.4l12.9-12.9
					 M288.2,543.8l-0.8,65.2 M314.1,582.3L314.1,582.3h-11.5c7.3-1.1,12.4-7.8,11.3-15.1c-0.9-6.5-6.4-11.3-13-11.5h-3.4
					c5.3-5.1,5.4-13.6,0.3-18.9c-5.1-5.3-13.6-5.4-18.9-0.3s-5.4,13.6-0.3,18.9c0.1,0.1,0.2,0.2,0.3,0.3h-4.8
					c-7.4,0-13.3,6-13.3,13.4c0,6.6,4.9,12.2,11.4,13.2h-11.6c-7.4,0-13.4,6-13.4,13.4c0,7.4,6,13.4,13.4,13.4h53.5
					c7.4,0,13.4-6,13.4-13.4C327.5,588.2,321.5,582.3,314.1,582.3L314.1,582.3z"/>
				<path class="st7" d="M874.4,584L874.4,584h-11.5c7.3-1.1,12.4-7.8,11.3-15.1c-0.9-6.5-6.4-11.3-13-11.5h-3.4
					c5.3-5.1,5.4-13.6,0.3-18.9s-13.6-5.4-18.9-0.3s-5.4,13.6-0.3,18.9c0.1,0.1,0.2,0.2,0.3,0.3h-4.8c-7.4,0-13.3,6-13.3,13.4
					c0,6.6,4.9,12.2,11.4,13.2H821c-7.4,0-13.4,6-13.4,13.4c0,7.4,6,13.4,13.4,13.4h26.7l0,0h26.7h0.1c7.4,0,13.4-6,13.4-13.4
					C887.9,590,881.9,584,874.4,584"/>
				<path class="st12" d="M847,601.1l-12.9-12.9 M847.1,576.4l-12.9-12.9 M846.8,601l12.9-12.9 M847.3,576.4l12.9-12.9 M847.7,543.8
					l-0.8,65.2 M873.6,582.3L873.6,582.3h-11.5c7.3-1.1,12.4-7.8,11.3-15.1c-0.9-6.5-6.4-11.3-13-11.5H857
					c5.3-5.1,5.4-13.6,0.3-18.9s-13.6-5.4-18.9-0.3s-5.4,13.6-0.3,18.9c0.1,0.1,0.2,0.2,0.3,0.3h-4.8c-7.4,0-13.3,6-13.3,13.4
					c0,6.6,4.9,12.2,11.4,13.2h-11.6c-7.4,0-13.4,6-13.4,13.4c0,7.4,6,13.4,13.4,13.4h53.5c7.4,0,13.4-6,13.4-13.4
					C887,588.2,881,582.3,873.6,582.3L873.6,582.3z"/>
				<path class="st13" d="M107.1,447.4c9.2-10,8.6-25.5-1.4-34.6c-1.6-1.5-3.5-2.8-5.4-3.8c8.4-16.9,3.4-37.4-11.8-48.7
					c4.3-12.9-2.7-26.7-15.6-31s-26.7,2.7-31,15.6c-1.7,5-1.7,10.4,0,15.4c-15.1,11.2-20.1,31.5-11.9,48.4
					c-12.2,5.9-17.3,20.6-11.4,32.8c1,2.2,2.4,4.2,4,5.9c-25.1,23.3-26.5,62.5-3.2,87.6c23.3,25.1,62.5,26.5,87.6,3.2
					s26.5-62.5,3.2-87.6C109.3,449.5,108.2,448.4,107.1,447.4"/>
				<path class="st6" d="M62.8,347.3V611 M104.7,441.8c9.2-10,8.6-25.5-1.4-34.6c-1.6-1.5-3.5-2.8-5.4-3.8
					c8.4-16.9,3.4-37.4-11.8-48.7c4.3-12.9-2.7-26.7-15.6-31s-26.7,2.7-31,15.6c-1.7,5-1.7,10.4,0,15.4
					c-15.1,11.2-20.1,31.5-11.9,48.4c-12.2,5.9-17.3,20.6-11.4,32.8c1,2.2,2.4,4.2,4,5.9c-25.1,23.3-26.5,62.5-3.2,87.6
					c23.3,25.1,62.5,26.5,87.6,3.2s26.5-62.5,3.2-87.6C106.9,443.8,105.8,442.8,104.7,441.8z"/>
			</g>
		</g>
		<polygon class="st3" points="772.3,336.2 690.7,336.9 690.5,314.3 633.9,314.8 634.3,371.4 652.9,371.3 653.9,489 745.4,488.2 
			744.9,427.2 773,427 		"/>
		<path class="st14" d="M714.5,482.8l0.1,127.4h21.8 M683.5,482.8l0.1,127.4h-21.8 M769.4,330.5l-81.6,0.7l-0.2-22.6L631,309
			l0.5,56.6l18.6-0.1l1,117.7l91.5-0.7l-0.5-61l28.2-0.2L769.4,330.5z"/>
		<g>
			<defs>
				<rect id="SVGID_5_" y="154.8" width="1127.7" height="477.1"/>
			</defs>
			<clipPath id="SVGID_6_">
				<use xlink:href="#SVGID_5_"  style="overflow:visible;"/>
			</clipPath>
			<g class="st15">
				<path class="st16" d="M714.3,383.4L714.3,383.4c-2.1,0-3.8-1.7-3.8-3.8c0-2.1,1.7-3.8,3.8-3.8c2.1,0,3.8,1.7,3.8,3.8
					C718.1,381.6,716.4,383.4,714.3,383.4"/>
				<path class="st14" d="M714.3,383.4L714.3,383.4c-2.1,0-3.8-1.7-3.8-3.8c0-2.1,1.7-3.8,3.8-3.8c2.1,0,3.8,1.7,3.8,3.8
					C718.1,381.6,716.4,383.4,714.3,383.4z"/>
				<path class="st16" d="M672.5,384.3L672.5,384.3c-2.1,0-3.8-1.7-3.8-3.8c0-2.1,1.7-3.8,3.8-3.8c2.1,0,3.8,1.7,3.8,3.8
					C676.3,382.6,674.6,384.3,672.5,384.3"/>
				<path class="st14" d="M672.5,384.3L672.5,384.3c-2.1,0-3.8-1.7-3.8-3.8c0-2.1,1.7-3.8,3.8-3.8c2.1,0,3.8,1.7,3.8,3.8
					C676.3,382.6,674.6,384.3,672.5,384.3z"/>
				<path class="st17" d="M742.1,435.4c7,15,10.7,31.4,10.8,48 M650.6,436.4L623.8,483"/>
				<path class="st18" d="M592.9,504.8c6.9-11.1,3.4-25.7-7.8-32.6c-10.4-6.4-24-3.8-31.4,6c-17.7-10.8-39.7-11.8-58.2-2.4
					c-14.8-14.6-38.8-14.5-53.4,0.4c-14.6,14.8-14.5,38.8,0.4,53.4c5.7,5.7,13.1,9.3,21.1,10.5c6,32.5,37.2,54,69.7,48.1
					c21.1-3.9,38.5-18.7,45.6-38.9c0.9,0.1,1.9,0.2,2.8,0.2c13.1,0,23.7-10.6,23.7-23.7C605.4,516.9,600.6,508.9,592.9,504.8"/>
				<path class="st19" d="M507.1,580.3v29.9h12.3 M531.4,580.3v29.9h12.3 M589.1,497.1c6.8-11.2,3.2-25.7-8-32.5
					c-10.3-6.3-23.7-3.7-31.1,5.9c-17.7-10.8-39.7-11.8-58.2-2.4c-14.8-14.6-38.8-14.5-53.4,0.4c-14.6,14.8-14.5,38.8,0.4,53.4
					c5.7,5.7,13.1,9.3,21.1,10.5c6,32.5,37.2,54,69.7,48.1c21.1-3.9,38.5-18.7,45.6-38.9c0.9,0.1,1.9,0.2,2.8,0.2
					c13.1,0,23.7-10.6,23.7-23.7C601.6,509.2,596.8,501.2,589.1,497.1L589.1,497.1z"/>
				<path class="st16" d="M510.7,510.7c0.1,1.8,1.6,3.1,3.3,3.1c1.8-0.1,3.1-1.6,3.1-3.3c-0.1-1.8-1.6-3.1-3.3-3.1c0,0,0,0,0,0
					C512,507.4,510.6,508.9,510.7,510.7"/>
				
					<ellipse transform="matrix(0.9992 -3.960861e-02 3.960861e-02 0.9992 -19.821 20.7542)" class="st19" cx="513.9" cy="510.6" rx="3.2" ry="3.2"/>
				<path class="st16" d="M558,508.8c0.1,1.8,1.6,3.1,3.3,3.1c1.8-0.1,3.1-1.6,3.1-3.3c-0.1-1.8-1.6-3.1-3.3-3.1c0,0,0,0,0,0
					C559.3,505.6,557.9,507.1,558,508.8"/>
				
					<ellipse transform="matrix(0.9992 -3.960861e-02 3.960861e-02 0.9992 -19.7097 22.627)" class="st19" cx="561.2" cy="508.7" rx="3.2" ry="3.2"/>
				<path class="st20" d="M485.7,543.5c0,0-11.5,33.3-5.1,48.6"/>
				<path class="st19" d="M571.6,549.3c0,0,41.2-36,49.4-60.5"/>
			</g>
		</g>
	</g>
</g>
</svg>
